<svg width="998" height="998" viewBox="0 0 998 998" fill="none" xmlns="http://www.w3.org/2000/svg">
<g clip-path="url(#clip0_13_2)">
<rect x="61" y="167" width="876" height="969" rx="64" fill="url(#paint0_linear_13_2)"/>
<rect opacity="0.25" x="413" y="216" width="172" height="34" rx="17" fill="white"/>
<path opacity="0.5" d="M500.825 781.295C449.436 781.295 398.061 763.617 358.95 728.241C351.38 721.392 350.793 709.706 357.641 702.136C364.489 694.566 376.175 693.978 383.746 700.827C448.311 759.214 553.36 759.194 617.936 700.827C625.518 693.967 637.224 694.577 644.041 702.136C650.889 709.717 650.302 721.403 642.732 728.241C603.599 763.606 552.205 781.295 500.825 781.295ZM377.536 557.573C368.063 536.25 348.714 523.002 327.044 523.002H327.039C305.364 523.002 286.016 536.245 276.536 557.573C275.908 558.986 275.579 560.442 275.379 561.9C272.688 568.07 273.918 575.447 279.229 580.152C285.819 585.989 295.911 585.386 301.755 578.78C308.119 571.591 317.33 567.466 327.024 567.459H327.029C336.729 567.459 345.95 571.591 352.324 578.784C353.82 580.477 355.659 581.831 357.719 582.758C359.78 583.684 362.013 584.161 364.272 584.158C368.032 584.158 371.811 582.838 374.849 580.145C380.157 575.442 381.383 568.069 378.694 561.9C378.494 560.442 378.164 558.986 377.536 557.573ZM722.957 561.911C722.758 560.447 722.429 558.986 721.797 557.567C712.319 536.242 692.969 523 671.3 523C649.621 523 630.271 536.244 620.793 557.567C620.163 558.984 619.832 560.445 619.633 561.908C616.949 568.075 618.182 575.452 623.494 580.148C630.096 586.006 640.182 585.363 646.019 578.777C652.372 571.588 661.583 567.463 671.279 567.456H671.289C680.985 567.456 690.205 571.588 696.579 578.781C698.076 580.474 699.916 581.828 701.977 582.755C704.039 583.681 706.273 584.159 708.533 584.155C712.43 584.157 716.192 582.729 719.105 580.142C724.408 575.447 725.641 568.078 722.957 561.911Z" fill="white"/>
</g>
<defs>
<linearGradient id="paint0_linear_13_2" x1="499" y1="167" x2="499" y2="1136" gradientUnits="userSpaceOnUse">
<stop stop-color="#FF4307"/>
<stop offset="1" stop-color="#FF9371"/>
</linearGradient>
<clipPath id="clip0_13_2">
<rect width="998" height="998" fill="white"/>
</clipPath>
</defs>
</svg>
